<svg width="21" height="18" viewBox="0 0 21 18" fill="none" xmlns="http://www.w3.org/2000/svg">
<path d="M3.98928 14.5521C3.65475 14.3681 3.39549 14.1216 3.2115 13.8125C3.02751 13.5034 2.93551 13.1561 2.93551 12.7707V7.95349L0.526886 6.62373C0.342894 6.52337 0.209082 6.39792 0.125449 6.24739C0.0418164 6.09685 0 5.92958 0 5.74559C0 5.5616 0.0418164 5.39433 0.125449 5.24379C0.209082 5.09325 0.342894 4.9678 0.526886 4.86744L9.00725 0.250914C9.15779 0.167281 9.31268 0.104389 9.47192 0.0622383C9.63115 0.0200873 9.79407 -0.000653381 9.96067 1.56813e-05C10.1273 0.000684744 10.2905 0.0217602 10.4504 0.063242C10.6103 0.104724 10.7649 0.167281 10.9141 0.250914L20.4733 5.4696C20.6406 5.55323 20.7704 5.67467 20.8627 5.83391C20.955 5.99314 21.0009 6.16442 21.0002 6.34775V12.7707C21.0002 13.0551 20.9038 13.2936 20.7112 13.4863C20.5185 13.679 20.2803 13.775 19.9966 13.7743C19.7129 13.7737 19.4747 13.6773 19.282 13.4853C19.0894 13.2933 18.993 13.0551 18.993 12.7707V6.84954L16.9858 7.95349V12.7707C16.9858 13.1555 16.8938 13.5027 16.7098 13.8125C16.5258 14.1222 16.2666 14.3688 15.932 14.5521L10.9141 17.2618C10.7635 17.3455 10.609 17.4084 10.4504 17.4505C10.2919 17.4927 10.1286 17.5134 9.96067 17.5127C9.79273 17.5121 9.62948 17.4913 9.47091 17.4505C9.31235 17.4097 9.15779 17.3468 9.00725 17.2618L3.98928 14.5521ZM9.96067 9.45889L16.8353 5.74559L9.96067 2.03229L3.08605 5.74559L9.96067 9.45889ZM9.96067 15.5055L14.9786 12.7958V9.00727L10.9392 11.2403C10.7886 11.3239 10.6297 11.3868 10.4625 11.4289C10.2952 11.4711 10.1279 11.4918 9.96067 11.4912C9.7934 11.4905 9.62614 11.4698 9.45887 11.4289C9.2916 11.3881 9.1327 11.3252 8.98216 11.2403L4.9427 9.00727V12.7958L9.96067 15.5055Z" fill="black"/>
</svg>
